<?xml version="1.0" encoding="utf-8"?>
<!-- Generator: Adobe Illustrator 18.1.0, SVG Export Plug-In . SVG Version: 6.00 Build 0)  -->
<svg version="1.1" xmlns="http://www.w3.org/2000/svg" xmlns:xlink="http://www.w3.org/1999/xlink" x="0px" y="0px"
	 viewBox="-49 141 512 512" enable-background="new -49 141 512 512" xml:space="preserve">
<g id="Layer_2">
	<rect x="-49" y="141" fill="#FF9900" width="512" height="512"/>
</g>
<g id="Layer_1">
	<path id="path3" fill="#FFFFFF" d="M317.7,269.6c-13.9-3.3-28-3.9-42-1.7c-14.5,2.2-28.3,7.3-40.9,15L64.2,387.8
		c-12.6,7.8-23.3,17.8-31.9,29.7C24.1,429.1,18.3,442,15,455.8c-3.3,13.9-3.9,28-1.7,42c2.2,14.5,7.3,28.3,15,40.9
		C36,551.4,46,562.1,58,570.6c11.6,8.2,24.4,14.1,38.3,17.4c13.8,3.3,28,3.9,42,1.7c14.5-2.2,28.3-7.3,40.9-15
		c14.7-9.1,27.3-21.6,36.2-36.3c6-9.9,10.4-20.7,13.1-32l38-23.4c11.3,2.7,23,3.7,34.5,2.7c17.2-1.4,34-6.9,48.7-15.9
		c12.6-7.8,23.3-17.8,31.9-29.8c8.2-11.6,14.1-24.4,17.4-38.3c3.3-13.9,3.9-28,1.7-42c-2.2-14.5-7.3-28.3-15-40.9
		C378,306.2,368,295.5,356,287C344.4,278.7,331.5,272.9,317.7,269.6L317.7,269.6z M334.7,445.3c-22.5,13.9-49.2,15.4-72.1,6.4
		l-60.2,37.1c-2.3,24.5-15.6,47.6-38.2,61.5c-38.1,23.4-87.9,11.6-111.4-26.5c-23.4-38.1-11.6-87.9,26.5-111.4l170.5-104.9
		c38.1-23.4,87.9-11.6,111.4,26.5C384.6,372,372.8,421.8,334.7,445.3z"/>
	<circle id="circle5" fill="#FFFFFF" cx="309.2" cy="403.9" r="16.2"/>
	<circle id="circle7" fill="#FFFFFF" cx="319.9" cy="359.3" r="16.2"/>
	<circle id="circle9" fill="#FFFFFF" cx="264.7" cy="393.3" r="16.2"/>
	<circle id="circle11" fill="#FFFFFF" cx="275.3" cy="348.7" r="16.2"/>
	<path id="path13" fill="#FFFFFF" d="M147.7,446.3L127,459l-12.7-20.7c-2.3-3.8-7.3-5-11.1-2.7l-13.8,8.5c-3.8,2.3-5,7.3-2.7,11.1
		L99.5,476l-20.7,12.7c-3.8,2.3-5,7.3-2.6,11.1l8.5,13.8c2.3,3.8,7.3,5,11.1,2.7l20.7-12.7l12.7,20.7c2.3,3.8,7.3,5,11.1,2.7
		l13.8-8.5c3.8-2.3,5-7.3,2.6-11.1L144,486.6l20.7-12.7c3.8-2.3,5-7.3,2.6-11.1l-8.5-13.8C156.5,445.1,151.5,443.9,147.7,446.3
		L147.7,446.3z"/>
	<path id="path15" fill="#FFFFFF" d="M172.3,258.9l65.8-40.5c34.7-21.3,45.6-66.9,24.2-101.6l-24.5,15.1c13,21.2,6.4,49-14.8,62
		l-65.8,40.5c-34.7,21.4-45.6,66.9-24.2,101.6l24.5-15.1C144.5,299.8,151.2,272,172.3,258.9L172.3,258.9z"/>
</g>
</svg>
