<?xml version="1.0" encoding="utf-8"?>
<!-- Generator: Adobe Illustrator 18.1.1, SVG Export Plug-In . SVG Version: 6.00 Build 0)  -->
<svg version="1.1"
	 id="svg2" xmlns:inkscape="http://www.inkscape.org/namespaces/inkscape" xmlns:sodipodi="http://sodipodi.sourceforge.net/DTD/sodipodi-0.dtd" xmlns:svg="http://www.w3.org/2000/svg" xmlns:rdf="http://www.w3.org/1999/02/22-rdf-syntax-ns#" xmlns:cc="http://creativecommons.org/ns#" xmlns:dc="http://purl.org/dc/elements/1.1/" sodipodi:docname="Aiga_mail_inverted.svg" inkscape:version="0.48.3.1 r9886"
	 xmlns="http://www.w3.org/2000/svg" xmlns:xlink="http://www.w3.org/1999/xlink" x="0px" y="0px" viewBox="-613 311 100 100"
	 enable-background="new -613 311 100 100" xml:space="preserve">
<g>
	<rect x="-613" y="311" fill="#A81313" width="100" height="100"/>
</g>
<g id="g3763" transform="translate(-6,6)">
	<g>
		<g>
			<path id="path6_13_" inkscape:connector-curvature="0" fill="#A81313" d="M-594,328.7h74v52.6h-74V328.7z M-594,328.7l33.4,32.4
				c2.4,1.8,4.8,1.8,7.2,0l33.4-32.4 M-594,381.3l27.1-26.3 M-547.1,355l27.1,26.3"/>
			<path fill="#FFFFFF" d="M-517.8,383.5h-78.5v-57h78.5V383.5z M-588.5,379.1h63.1l-21.6-21l-5,4.8c-3.2,2.3-6.7,2.3-9.9,0
				l-0.2-0.2l-4.7-4.6L-588.5,379.1z M-543.9,355l21.6,21v-42L-543.9,355z M-591.7,334v42l21.6-21L-591.7,334z M-559.1,359.5
				c1.5,1.1,2.8,1.1,4.3,0l29.4-28.6h-63.1L-559.1,359.5z"/>
		</g>
	</g>
</g>
</svg>
