<?xml version="1.0" encoding="utf-8"?>
<!-- Generator: Adobe Illustrator 18.1.0, SVG Export Plug-In . SVG Version: 6.00 Build 0)  -->
<svg version="1.1" id="Layer_1" xmlns="http://www.w3.org/2000/svg" xmlns:xlink="http://www.w3.org/1999/xlink" x="0px" y="0px"
	 viewBox="50 140 512 512" enable-background="new 50 140 512 512" xml:space="preserve">
<g id="Layer_2">
	<rect x="50" y="140" fill="#EB1478" width="512" height="512"/>
</g>
<path fill="#FFFFFF" d="M408.2,280.1c-84.3,0-99.3,55.3-99.3,116.1c0,60.5,15,115.8,99.3,115.8c84,0,99-55.3,99-115.8
	C507.1,335.4,492.5,280.1,408.2,280.1z M408.2,458.5c-33.3,0-37.9-22.9-37.9-60.2c0-37,4.6-59.9,37.9-59.9c33,0,37.6,22.9,37.6,59.9
	C445.7,435.5,441.2,458.5,408.2,458.5z"/>
<path fill="#FFFFFF" d="M192.9,421.8h39v4c0,25,0.8,36-29,36c-27.8,0-37.3-12.8-37.3-63.8c0-53.2,15.9-59.6,39.7-59.6
	c17.7,0,30.2,4.6,40.6,10.4l32.4-50.4c-17.1-11-42.2-18.3-70.3-18.3c-78.2,0-103.2,37.6-103.2,116.1c0,68.4,18.3,115.8,92.5,115.8
	c13.2,0,24.4-0.9,34.2-2.7h55.6v-94.7v-41.8h-87.6L192.9,421.8z"/>
</svg>
