<?xml version="1.0" encoding="utf-8"?>
<!-- Generator: Adobe Illustrator 18.1.1, SVG Export Plug-In . SVG Version: 6.00 Build 0)  -->
<svg version="1.1" xmlns="http://www.w3.org/2000/svg" xmlns:xlink="http://www.w3.org/1999/xlink" x="0px" y="0px"
	 viewBox="0 0 113.4 113.4" enable-background="new 0 0 113.4 113.4" xml:space="preserve">
<g id="Layer_2">
	<rect fill="#2C5D88" width="113.4" height="113.4"/>
</g>
<g id="Layer_1">
	<path fill-rule="evenodd" clip-rule="evenodd" fill="#FFFFFF" d="M90.4,49.8h-7.7c0.6,2.2,0.9,4.4,0.9,6.8
		c0,15-12.1,27.1-27.1,27.1c-14.9,0-27.1-12.1-27.1-27.1c0-2.3,0.3-4.6,0.9-6.8h-7.7V87c0,1.9,1.5,3.4,3.4,3.4H87
		c1.9,0,3.4-1.5,3.4-3.4V49.8z M90.4,26.1c0-1.9-1.5-3.4-3.4-3.4H76.9c-1.9,0-3.4,1.5-3.4,3.4v10.2c0,1.9,1.5,3.4,3.4,3.4H87
		c1.9,0,3.4-1.5,3.4-3.4V26.1z M56.6,39.7c-9.3,0-16.9,7.6-16.9,16.9c0,9.3,7.6,16.9,16.9,16.9s16.9-7.6,16.9-16.9
		C73.5,47.2,65.9,39.7,56.6,39.7 M90.4,100.6H22.8c-5.6,0-10.1-4.5-10.1-10.2V22.8c0-5.6,4.5-10.1,10.1-10.1h67.7
		c5.6,0,10.1,4.5,10.1,10.1v67.7C100.6,96,96,100.6,90.4,100.6"/>
</g>
</svg>
