<?xml version="1.0" encoding="utf-8"?>
<!-- Generator: Adobe Illustrator 18.1.0, SVG Export Plug-In . SVG Version: 6.00 Build 0)  -->
<svg version="1.1" id="Kickstarter_K" xmlns="http://www.w3.org/2000/svg" xmlns:xlink="http://www.w3.org/1999/xlink" x="0px"
	 y="0px" viewBox="50 140 512 512" enable-background="new 50 140 512 512" xml:space="preserve">
<rect x="50" y="140" fill="#0F2105" width="512" height="512"/>
<path id="K" fill="#2BDE73" d="M284,350.6l51.9-75.2c9.8-14.2,22.5-21.3,38-21.3c12.7,0,23.6,4.5,32.9,13.5s13.9,19.8,13.9,32.3
	c0,9.3-2.4,17.4-7.4,24.5l-46.8,68.1l57.2,72.6c5.7,7.2,8.6,15.7,8.6,25.3c0,12.8-4.5,23.8-13.5,33c-9,9.2-19.9,13.8-32.7,13.8
	c-14,0-24.7-4.6-32.1-13.7L284,436v48.2c0,13.8-2.4,24.5-7.2,32.1c-8.7,13.9-21.4,20.8-38,20.8c-15.1,0-26.8-5.1-35.2-15.3
	c-7.8-9.4-11.6-21.9-11.6-37.4V305.6c0-14.7,3.9-26.8,11.9-36.4c8.3-10.1,19.8-15.1,34.3-15.1c13.9,0,25.5,5,34.7,15.1
	c5.2,5.6,8.4,11.2,9.8,17c0.8,3.5,1.2,10.1,1.2,19.8v44.6H284z"/>
</svg>
