<?xml version="1.0" encoding="utf-8"?>
<!-- Generator: Adobe Illustrator 18.1.1, SVG Export Plug-In . SVG Version: 6.00 Build 0)  -->
<svg version="1.1" xmlns="http://www.w3.org/2000/svg" xmlns:xlink="http://www.w3.org/1999/xlink" x="0px" y="0px"
	 viewBox="0 0 144 144" enable-background="new 0 0 144 144" xml:space="preserve">
<g id="Layer_2">
	<rect x="0" y="0" fill="#0065A1" width="144" height="144"/>
</g>
<g id="Layer_3">
	<path fill="#FFFFFF" d="M21.3,54h21.4v68.7H21.3V54z M32,19.8c6.8,0,12.4,5.5,12.4,12.4c0,6.8-5.5,12.4-12.4,12.4
		c-6.8,0-12.4-5.5-12.4-12.4C19.6,25.4,25.2,19.8,32,19.8"/>
	<path fill="#FFFFFF" d="M56.1,54h20.5v9.4h0.3c2.9-5.4,9.8-11.1,20.2-11.1c21.6,0,25.6,14.2,25.6,32.7v37.7h-21.3V89.3
		c0-8-0.1-18.2-11.1-18.2c-11.1,0-12.8,8.7-12.8,17.6v34H56.1V54z"/>
</g>
</svg>
