<?xml version="1.0" encoding="utf-8"?>
<!-- Generator: Adobe Illustrator 18.1.0, SVG Export Plug-In . SVG Version: 6.00 Build 0)  -->
<svg version="1.1"
	 id="steam" xmlns:cc="http://creativecommons.org/ns#" xmlns:dc="http://purl.org/dc/elements/1.1/" xmlns:rdf="http://www.w3.org/1999/02/22-rdf-syntax-ns#" xmlns:svg="http://www.w3.org/2000/svg"
	 xmlns="http://www.w3.org/2000/svg" xmlns:xlink="http://www.w3.org/1999/xlink" x="0px" y="0px" viewBox="-305 141 512 512"
	 enable-background="new -305 141 512 512" xml:space="preserve">
<g id="Layer_2">
	<rect x="-305" y="141" fill="#070000" width="512" height="512"/>
</g>
<path id="logo" fill="#E2E2E2" d="M65,231C8.7,231-37,276.7-37,333l-70,96c-15.1,0-29.1,4.5-40.8,12.2L-305,373v92l124.9,49.2
	c5.4,35.6,36.1,62.8,73.1,62.8c40.9,0,74-33.1,74-74l98-68c56.3,0,102-45.7,102-102S121.3,231,65,231z M65,267c36.5,0,66,29.5,66,66
	c0,36.5-29.5,66-66,66c-36.5,0-66-29.5-66-66S28.5,267,65,267z M65,281c-28.7,0-54,23.3-54,52c0,28.7,25.3,54,54,54
	c28.7,0,52-25.3,52-54C117,304.3,93.7,281,65,281z M-105,445c30.9,0,56,25.1,56,56s-25.1,56-56,56c-22.9,0-42.6-13.8-51.2-33.4
	l20.8,8.2c7.5,7,17.5,11.2,28.5,11.2c23.2,0,42-18.8,42-42s-18.8-42-42-42l-20.9-9.1C-120.9,446.7-113.2,445-105,445z"/>
</svg>
