<?xml version="1.0" encoding="utf-8"?>
<!-- Generator: Adobe Illustrator 18.1.0, SVG Export Plug-In . SVG Version: 6.00 Build 0)  -->
<svg version="1.1" id="Layer_1" xmlns="http://www.w3.org/2000/svg" xmlns:xlink="http://www.w3.org/1999/xlink" x="0px" y="0px"
	 viewBox="50 140 512 512" enable-background="new 50 140 512 512" xml:space="preserve">
<rect x="50" y="140" fill="#60A8DC" width="512" height="512"/>
<path fill="#FFFFFF" d="M489.7,282c-13.6,6-28.1,10.1-43.3,11.8c15.6-9.3,27.6-24.1,33.2-41.7c-14.5,8.6-30.6,14.9-47.8,18.3
	c-13.7-14.6-33.3-23.8-55-23.8c-41.7,0-75.4,33.7-75.4,75.4c0,5.9,0.7,11.7,2,17.2c-62.6-3.1-118.1-33.2-155.4-78.8
	c-6.5,11.2-10.2,24.1-10.2,37.9c0,26.2,13.3,49.2,33.6,62.8c-12.4-0.4-23.9-3.8-34.1-9.4c0,0.3,0,0.7,0,0.9
	c0,36.6,25.9,66.9,60.5,73.9c-6.3,1.7-13,2.7-19.9,2.7c-4.8,0-9.5-0.5-14.2-1.3c9.5,30,37.5,51.7,70.4,52.4
	c-25.8,20.2-58.3,32.3-93.7,32.3c-6,0-12.1-0.4-18-1.1c33.3,21.4,73,33.9,115.6,33.9c138.7,0,214.5-114.9,214.5-214.5
	c0-3.2-0.1-6.6-0.3-9.8C466.9,310.4,479.6,297.2,489.7,282z"/>
</svg>
