<?xml version="1.0" encoding="utf-8"?>
<!-- Generator: Adobe Illustrator 18.1.0, SVG Export Plug-In . SVG Version: 6.00 Build 0)  -->
<svg version="1.1" id="レイヤー_1" xmlns="http://www.w3.org/2000/svg" xmlns:xlink="http://www.w3.org/1999/xlink" x="0px"
	 y="0px" viewBox="-433 141 512 512" enable-background="new -433 141 512 512" xml:space="preserve">
<rect x="-433" y="141" fill="#006CA2" width="512" height="512"/>
<g>
	<path fill="#FFFFFF" d="M-177,212.3c-101.8,0-184.7,82.9-184.7,184.7l0,0c0,101.8,82.9,184.7,184.7,184.7S7.7,498.8,7.7,397l0,0
		C7.7,295.2-75.1,212.3-177,212.3z M-103.9,458.6c-18.1-5.4-38.8-9-62.6-9.8v-41.3h70.1C-97.2,426.7-99.9,443.6-103.9,458.6z
		 M-250.2,335.4c18.1,5.4,38.9,9,62.7,9.9v41.3h-70.2C-257,367.3-254.2,350.4-250.2,335.4z M-257.5,407.5h70.1v41.3
		c-23.7,0.8-44.4,4.4-62.5,9.8C-254,443.5-256.8,426.6-257.5,407.5z M-96.4,386.5h-70.1v-41.3c23.7-0.8,44.4-4.4,62.5-9.8
		C-100,350.5-97.2,367.4-96.4,386.5z M-13.6,386.5h-61.8c-0.8-21.8-3.9-41.1-8.6-58.1c16.6-6.8,30.5-15,42-23.7
		C-25.7,328.3-15.5,356.3-13.6,386.5z M-54.8,288.2c-9.8,7.3-21.6,14.3-35.6,20.2c-12.5-32.6-30.6-55.3-46.7-70.2
		C-104.8,246.3-76.4,264.1-54.8,288.2z M-110.5,315.5c-16.2,4.8-34.7,8-56,8.8v-82.9C-150.8,252.6-126.1,275.5-110.5,315.5z
		 M-187.5,241.1v83.2c-21.4-0.8-40.1-4.1-56.3-8.9C-228.2,275.1-203.3,252.2-187.5,241.1z M-216.9,238.2
		c-16.1,15-34.2,37.7-46.6,70.2c-14-5.9-25.8-12.9-35.6-20.2C-277.6,264.1-249.2,246.3-216.9,238.2z M-312.1,304.7
		c11.5,8.6,25.4,16.9,42,23.7c-4.7,17-7.8,36.3-8.6,58.1h-61.8C-338.5,356.3-328.2,328.3-312.1,304.7z M-278.6,407.5
		c0.8,21.8,3.9,41.1,8.6,58.2c-16.6,6.8-30.5,15-42,23.7c-16.2-23.6-26.4-51.6-28.4-81.8H-278.6z M-299.1,505.8
		c9.8-7.3,21.5-14.3,35.6-20.2c12.5,32.6,30.5,55.3,46.6,70.2C-249.2,547.7-277.6,529.9-299.1,505.8z M-243.4,478.5
		c16.2-4.8,34.7-8,56-8.8v83C-203.2,541.5-227.9,518.5-243.4,478.5z M-166.5,552.9v-83.1c21.4,0.8,40,4.1,56.2,8.8
		C-125.9,518.9-150.7,541.8-166.5,552.9z M-137.1,555.8c16.1-15,34.2-37.7,46.6-70.2c14,5.9,25.8,12.9,35.6,20.2
		C-76.4,529.9-104.8,547.7-137.1,555.8z M-41.9,489.3c-11.5-8.6-25.4-16.9-42-23.7c4.7-17.1,7.8-36.3,8.6-58.2h61.8
		C-15.5,437.7-25.7,465.7-41.9,489.3z"/>
</g>
</svg>
