<?xml version="1.0" encoding="utf-8"?>
<!-- Generator: Adobe Illustrator 18.1.1, SVG Export Plug-In . SVG Version: 6.00 Build 0)  -->
<svg version="1.1" id="Layer_1" xmlns="http://www.w3.org/2000/svg" xmlns:xlink="http://www.w3.org/1999/xlink" x="0px" y="0px"
	 viewBox="0 0 500 500" enable-background="new 0 0 500 500" xml:space="preserve">
<g id="Layer_1_1_">
	<path fill="#FFFFFF" d="M440.1,211.2h-43.4c3.4,12.4,5.1,24.8,5.1,38.3c0,84.6-68.2,152.8-152.8,152.8
		c-84,0-152.8-68.2-152.8-152.8c0-13,1.7-25.9,5.1-38.3H57.8v209.7c0,10.7,8.5,19.2,19.2,19.2h343.9c10.7,0,19.2-8.5,19.2-19.2
		V211.2z M440.1,77.5c0-10.7-8.5-19.2-19.2-19.2h-56.9c-10.7,0-19.2,8.5-19.2,19.2V135c0,10.7,8.5,19.2,19.2,19.2h56.9
		c10.7,0,19.2-8.5,19.2-19.2V77.5z M249.5,154.2c-52.4,0-95.3,42.8-95.3,95.3s42.8,95.3,95.3,95.3s95.3-42.8,95.3-95.3
		C344.8,196.5,301.9,154.2,249.5,154.2 M440.1,497.6H58.9C27.4,497.6,2,472.2,2,440.1V58.9C2,27.4,27.4,2,58.9,2h381.7
		c31.6,0,56.9,25.4,56.9,56.9v381.7C497.6,471.6,471.6,497.6,440.1,497.6"/>
</g>
</svg>
