<?xml version="1.0" encoding="utf-8"?>
<!-- Generator: Adobe Illustrator 18.1.0, SVG Export Plug-In . SVG Version: 6.00 Build 0)  -->
<svg version="1.1" id="Layer_1" xmlns="http://www.w3.org/2000/svg" xmlns:xlink="http://www.w3.org/1999/xlink" x="0px" y="0px"
	 viewBox="-90 90 792 612" enable-background="new -90 90 792 612" xml:space="preserve">
<path fill="#DAEEF0" d="M-269.3,78.6l-9.9,757l56.7-193.5L-269.3,78.6z"/>
<path fill="#E6F7F5" d="M-269.3,78.6l46.8,563.5l23.4-166.6L-269.3,78.6z"/>
<path fill="#ECF7F5" d="M-269.3,78.6l70.1,396.9l15.2-173L-269.3,78.6z"/>
<path fill="#ECF7F5" d="M-269.3,78.6l85.3,223.9l81.3-157.8L-269.3,78.6z"/>
<path fill="#ECF7F5" d="M-269.3,78.6l166.6,66.1l277.7-90.6L-269.3,78.6z"/>
<path fill="#E8F7F5" d="M-269.3,78.6l444.3-24.6l250.8-26.3L-269.3,78.6z"/>
<path fill="#ECF7F5" d="M-102.7,144.7L-184,302.5l173-28.1L-102.7,144.7z"/>
<path fill="#EAF7F5" d="M-102.7,144.7l91.8,129.8L174.9,54.1L-102.7,144.7z"/>
<path fill="#E7F6F4" d="M174.9,54.1L-10.9,274.5l178.3,12.3L174.9,54.1z"/>
<path fill="#E4F4F3" d="M174.9,54.1l-7.6,232.6l71.9-209.3L174.9,54.1z"/>
<path fill="#E0F1F1" d="M174.9,54.1l64.3,23.4l186.5-49.7L174.9,54.1z"/>
<path fill="#E1F2F1" d="M239.2,77.5l-71.9,209.3l167.2-54.4L239.2,77.5z"/>
<path fill="#DEF0F0" d="M239.2,77.5l95.3,154.9l91.2-204.6L239.2,77.5z"/>
<path fill="#DAEFF0" d="M425.7,27.8l-91.2,204.6l154.9,18.1L425.7,27.8z M425.7,27.8l63.7,222.7l105.2-218L425.7,27.8z"/>
<path fill="#D6ECF0" d="M594.6,32.5l-105.2,218l177.7-11.1L594.6,32.5z M594.6,32.5l72.5,206.9l135-164.8L594.6,32.5z"/>
<path fill="#D7EDF0" d="M802.2,74.5l-135,164.8L803.9,278L802.2,74.5z"/>
<path fill="#D6ECF0" d="M802.2,74.5l1.8,203.4L857.1,593L802.2,74.5z"/>
<path fill="#E5F6F4" d="M-184,302.5l-15.2,173l105.2-43.3L-184,302.5z"/>
<path fill="#E7F7F5" d="M-184,302.5l90,129.8l83-157.8L-184,302.5z"/>
<path fill="#DFF0F0" d="M-10.9,274.5l-83,157.8l257.8-22.2L-10.9,274.5z"/>
<path fill="#E0F0F0" d="M-10.9,274.5l174.8,135.6l3.5-123.3L-10.9,274.5z"/>
<path fill="#D9EEF0" d="M167.3,286.7l-3.5,123.3l118.7,68.4L167.3,286.7z"/>
<path fill="#DBEFF0" d="M167.3,286.7l115.2,191.7l52-246.1L167.3,286.7z"/>
<path fill="#D6ECF0" d="M334.5,232.4l-52,246.1l130.9-60.2L334.5,232.4z"/>
<path fill="#D7EDF0" d="M334.5,232.4l78.9,185.9l76-167.8L334.5,232.4z"/>
<path fill="#D6ECF0" d="M489.4,250.5l-76,167.8l205.2-26.3L489.4,250.5z"/>
<path fill="#D7EDF0" d="M489.4,250.5l129.2,141.5l48.5-152.6L489.4,250.5z M667.1,239.4l-48.5,152.6l185.3-114L667.1,239.4z"/>
<path fill="#D6ECF0" d="M803.9,278l-185.3,114L784,451L803.9,278z"/>
<path fill="#DBEFF0" d="M803.9,278L784,451l73.1,142L803.9,278z"/>
<path fill="#D9EEF0" d="M-199.2,475.5l-23.4,166.6l184.7-78.9L-199.2,475.5z"/>
<path fill="#D9EEF0" d="M-199.2,475.5l161.3,87.7l-56.1-130.9L-199.2,475.5z"/>
<path fill="#DAEFF0" d="M-93.9,432.3l56.1,130.9l201.7-153.2L-93.9,432.3z"/>
<path fill="#D9EEF0" d="M163.8,410.1L-37.8,563.2l101.1,42.7L163.8,410.1z"/>
<path fill="#DBEFF0" d="M163.8,410.1L63.3,605.9l219.2-127.4L163.8,410.1z"/>
<path fill="#D7EDF0" d="M282.5,478.5L63.3,605.9l199.3,29.2L282.5,478.5z"/>
<path fill="#DBEFF0" d="M282.5,478.5l-19.9,156.7l175.9,30.4L282.5,478.5z"/>
<path fill="#DAEFF0" d="M282.5,478.5l156.1,187.1l-25.1-247.3L282.5,478.5z"/>
<path fill="#D7EDF0" d="M413.4,418.2l25.1,247.3l180-273.6L413.4,418.2z"/>
<path fill="#D6ECF0" d="M618.6,391.9l-180,273.6l268.3-108.7L618.6,391.9z"/>
<path fill="#DAEFF0" d="M618.6,391.9l88.3,164.8L784,451L618.6,391.9z"/>
<path fill="#D6ECF0" d="M784,451l-77.2,105.8L857.1,593L784,451z"/>
<path fill="#8E9B9B" d="M-222.5,642.1l-56.7,193.5l185.3-19.9L-222.5,642.1z"/>
<path fill="#D9EEF0" d="M-222.5,642.1l128.6,173.6l56.1-252.5L-222.5,642.1z"/>
<path fill="#DAEFF0" d="M-37.8,563.2l-56.1,252.5L63.3,605.9L-37.8,563.2z M63.3,605.9L-93.9,815.7l247.3-91.2L63.3,605.9z"/>
<path fill="#D9EEF0" d="M63.3,605.9l90,118.7l109.3-89.4L63.3,605.9z"/>
<path fill="#DAEFF0" d="M262.6,635.1l-109.3,89.4l103.5,101.1L262.6,635.1z"/>
<path fill="#D7EDF0" d="M262.6,635.1l-5.8,190.6l181.8-160.2L262.6,635.1z"/>
<path fill="#D6ECF0" d="M438.6,665.5L256.8,825.7l274.7-55.5L438.6,665.5z"/>
<path fill="#DAEFF0" d="M438.6,665.5l92.9,104.6l175.4-213.4L438.6,665.5z"/>
<path fill="#D7EDF0" d="M706.9,556.8L531.5,770.1l78.9,63.7L706.9,556.8z"/>
<path fill="#D6ECF0" d="M706.9,556.8l-96.4,277.1l185.9-32.1L706.9,556.8z M706.9,556.8l89.4,244.9L857.1,593L706.9,556.8z"/>
<path fill="#707F80" d="M-279.2,835.6l889.7-1.8l-353.6-8.2L-279.2,835.6z"/>
<path fill="#7E8B8B" d="M-279.2,835.6l536-9.9l-350.7-9.9L-279.2,835.6z"/>
<path fill="#758484" d="M-93.9,815.7l350.7,9.9L153.3,724.5L-93.9,815.7z"/>
<path fill="#DAEFF0" d="M256.8,825.7l353.6,8.2l-78.9-63.7L256.8,825.7z"/>
</svg>
