<svg width="1440" height="757" xmlns="http://www.w3.org/2000/svg"><g><path d="M-43,-30L-89,690L-61,412Z" fill="#addbee" stroke="#addbee"/><path d="M-43,-30L-61,412L-32,179Z" fill="#e4eefc" stroke="#e4eefc"/><path d="M-43,-30L-32,179L-22,21Z" fill="#f8f6fc" stroke="#f8f6fc"/><path d="M-43,-30L-22,21L24,18Z" fill="#fcf8fc" stroke="#fcf8fc"/><path d="M-43,-30L24,18L69,-13Z" fill="#f9f6fb" stroke="#f9f6fb"/><path d="M-43,-30L69,-13L183,-116Z" fill="#f4f3f9" stroke="#f4f3f9"/><path d="M69,-13L24,18L69,160Z" fill="#f0f1f9" stroke="#f0f1f9"/><path d="M69,-13L69,160L240,113Z" fill="#e6eaf6" stroke="#e6eaf6"/><path d="M69,-13L240,113L183,-116Z" fill="#ebecf5" stroke="#ebecf5"/><path d="M183,-116L240,113L311,24Z" fill="#e2e7f2" stroke="#e2e7f2"/><path d="M183,-116L311,24L313,-26Z" fill="#e0e6f1" stroke="#e0e6f1"/><path d="M183,-116L313,-26L425,-118Z" fill="#dbe3f0" stroke="#dbe3f0"/><path d="M313,-26L311,24L508,60Z" fill="#cfdeed" stroke="#cfdeed"/><path d="M313,-26L508,60L425,-118Z" fill="#cbddec" stroke="#cbddec"/><path d="M425,-118L508,60L534,-43Z" fill="#c0d9ea" stroke="#c0d9ea"/><path d="M425,-118L534,-43L686,-75Z" fill="#b7d6e8" stroke="#b7d6e8"/><path d="M425,-118L686,-75L858,-76Z" fill="#a9d1e0" stroke="#a9d1e0"/><path d="M425,-118L858,-76L1095,-88Z" fill="#97cbd3" stroke="#97cbd3"/><path d="M534,-43L508,60L610,12Z" fill="#b6d5e8" stroke="#b6d5e8"/><path d="M534,-43L610,12L686,-75Z" fill="#afd3e4" stroke="#afd3e4"/><path d="M686,-75L610,12L671,102Z" fill="#a7d0e0" stroke="#a7d0e0"/><path d="M686,-75L671,102L843,86Z" fill="#9bcbd9" stroke="#9bcbd9"/><path d="M686,-75L843,86L858,-76Z" fill="#97cbd3" stroke="#97cbd3"/><path d="M858,-76L843,86L934,-75Z" fill="#8dc7cb" stroke="#8dc7cb"/><path d="M858,-76L934,-75L1095,-88Z" fill="#89c2c1" stroke="#89c2c1"/><path d="M934,-75L843,86L990,52Z" fill="#89c3c6" stroke="#89c3c6"/><path d="M934,-75L990,52L1095,-88Z" fill="#87bfbc" stroke="#87bfbc"/><path d="M1095,-88L990,52L1122,39Z" fill="#84bbb5" stroke="#84bbb5"/><path d="M1095,-88L1122,39L1274,-51Z" fill="#80b5ab" stroke="#80b5ab"/><path d="M1095,-88L1274,-51L1328,-54Z" fill="#80b1a3" stroke="#80b1a3"/><path d="M1095,-88L1328,-54L1632,-20Z" fill="#80a996" stroke="#80a996"/><path d="M1274,-51L1122,39L1271,55Z" fill="#7eb1a4" stroke="#7eb1a4"/><path d="M1274,-51L1271,55L1328,-54Z" fill="#80ad9d" stroke="#80ad9d"/><path d="M1328,-54L1271,55L1352,79Z" fill="#7daa9a" stroke="#7daa9a"/><path d="M1328,-54L1352,79L1482,-14Z" fill="#7fa792" stroke="#7fa792"/><path d="M1328,-54L1482,-14L1632,-20Z" fill="#80a188" stroke="#80a188"/><path d="M1482,-14L1352,79L1540,39Z" fill="#7ca18a" stroke="#7ca18a"/><path d="M1482,-14L1540,39L1632,-20Z" fill="#809d80" stroke="#809d80"/><path d="M1632,-20L1540,39L1620,107Z" fill="#7c9880" stroke="#7c9880"/><path d="M1632,-20L1620,107L1664,370Z" fill="#709080" stroke="#709080"/><path d="M-22,21L-32,179L69,160Z" fill="#eef1fb" stroke="#eef1fb"/><path d="M-22,21L69,160L24,18Z" fill="#f2f2fa" stroke="#f2f2fa"/><path d="M240,113L69,160L207,210Z" fill="#d8e3f4" stroke="#d8e3f4"/><path d="M240,113L207,210L336,156Z" fill="#cfdef1" stroke="#cfdef1"/><path d="M240,113L336,156L311,24Z" fill="#d4dff0" stroke="#d4dff0"/><path d="M311,24L336,156L508,60Z" fill="#c8dbed" stroke="#c8dbed"/><path d="M508,60L336,156L426,195Z" fill="#bdd6ec" stroke="#bdd6ec"/><path d="M508,60L426,195L531,194Z" fill="#b1d2ea" stroke="#b1d2ea"/><path d="M508,60L531,194L671,102Z" fill="#a8cfe7" stroke="#a8cfe7"/><path d="M508,60L671,102L610,12Z" fill="#abd0e5" stroke="#abd0e5"/><path d="M671,102L531,194L663,214Z" fill="#98c8e2" stroke="#98c8e2"/><path d="M671,102L663,214L865,194Z" fill="#89c3d8" stroke="#89c3d8"/><path d="M671,102L865,194L843,86Z" fill="#8ac4d3" stroke="#8ac4d3"/><path d="M843,86L865,194L986,175Z" fill="#7dbec8" stroke="#7dbec8"/><path d="M843,86L986,175L990,52Z" fill="#80bec4" stroke="#80bec4"/><path d="M990,52L986,175L1122,39Z" fill="#7db9ba" stroke="#7db9ba"/><path d="M1122,39L986,175L1143,232Z" fill="#75b3b4" stroke="#75b3b4"/><path d="M1122,39L1143,232L1211,210Z" fill="#6eadac" stroke="#6eadac"/><path d="M1122,39L1211,210L1271,55Z" fill="#76aea7" stroke="#76aea7"/><path d="M1271,55L1211,210L1336,216Z" fill="#6ea69f" stroke="#6ea69f"/><path d="M1271,55L1336,216L1352,79Z" fill="#74a59a" stroke="#74a59a"/><path d="M1352,79L1336,216L1544,213Z" fill="#6b9c8f" stroke="#6b9c8f"/><path d="M1352,79L1544,213L1540,39Z" fill="#759c88" stroke="#759c88"/><path d="M1540,39L1544,213L1615,159Z" fill="#729580" stroke="#729580"/><path d="M1540,39L1615,159L1620,107Z" fill="#769580" stroke="#769580"/><path d="M1620,107L1615,159L1664,370Z" fill="#5c887e" stroke="#5c887e"/><path d="M-32,179L-61,412L-17,361Z" fill="#b8ddf6" stroke="#b8ddf6"/><path d="M-32,179L-17,361L119,312Z" fill="#bdddf7" stroke="#bdddf7"/><path d="M-32,179L119,312L69,160Z" fill="#d1e4f8" stroke="#d1e4f8"/><path d="M69,160L119,312L207,210Z" fill="#c5ddf4" stroke="#c5ddf4"/><path d="M207,210L119,312L206,320Z" fill="#afd4f1" stroke="#afd4f1"/><path d="M207,210L206,320L273,296Z" fill="#acd1ef" stroke="#acd1ef"/><path d="M207,210L273,296L336,156Z" fill="#b9d5ef" stroke="#b9d5ef"/><path d="M336,156L273,296L426,195Z" fill="#b1d1ed" stroke="#b1d1ed"/><path d="M426,195L273,296L433,327Z" fill="#99c8ea" stroke="#99c8ea"/><path d="M426,195L433,327L531,194Z" fill="#98c8e8" stroke="#98c8e8"/><path d="M531,194L433,327L630,290Z" fill="#83c0e6" stroke="#83c0e6"/><path d="M531,194L630,290L663,214Z" fill="#85c1e2" stroke="#85c1e2"/><path d="M663,214L630,290L724,348Z" fill="#6bb8db" stroke="#6bb8db"/><path d="M663,214L724,348L865,194Z" fill="#6cb8d4" stroke="#6cb8d4"/><path d="M865,194L724,348L898,309Z" fill="#57b1cc" stroke="#57b1cc"/><path d="M865,194L898,309L986,175Z" fill="#63b3c4" stroke="#63b3c4"/><path d="M986,175L898,309L1020,314Z" fill="#53abbe" stroke="#53abbe"/><path d="M986,175L1020,314L1143,232Z" fill="#58a9b5" stroke="#58a9b5"/><path d="M1143,232L1020,314L1094,320Z" fill="#46a1b0" stroke="#46a1b0"/><path d="M1143,232L1094,320L1208,309Z" fill="#449da9" stroke="#449da9"/><path d="M1143,232L1208,309L1211,210Z" fill="#4fa0a6" stroke="#4fa0a6"/><path d="M1211,210L1208,309L1336,216Z" fill="#519c9f" stroke="#519c9f"/><path d="M1336,216L1208,309L1379,359Z" fill="#409297" stroke="#409297"/><path d="M1336,216L1379,359L1532,300Z" fill="#428c8b" stroke="#428c8b"/><path d="M1336,216L1532,300L1544,213Z" fill="#528e86" stroke="#528e86"/><path d="M1544,213L1532,300L1664,370Z" fill="#41817c" stroke="#41817c"/><path d="M1544,213L1664,370L1615,159Z" fill="#50857d" stroke="#50857d"/><path d="M-17,361L-61,412L52,490Z" fill="#97d1de" stroke="#97d1de"/><path d="M-17,361L52,490L119,312Z" fill="#9bd1e3" stroke="#9bd1e3"/><path d="M119,312L52,490L230,447Z" fill="#8bc8da" stroke="#8bc8da"/><path d="M119,312L230,447L206,320Z" fill="#96cbe4" stroke="#96cbe4"/><path d="M206,320L230,447L273,296Z" fill="#92c8e3" stroke="#92c8e3"/><path d="M273,296L230,447L359,452Z" fill="#80c0d8" stroke="#80c0d8"/><path d="M273,296L359,452L433,327Z" fill="#82c0de" stroke="#82c0de"/><path d="M433,327L359,452L445,480Z" fill="#68b7cf" stroke="#68b7cf"/><path d="M433,327L445,480L595,409Z" fill="#60b4d0" stroke="#60b4d0"/><path d="M433,327L595,409L630,290Z" fill="#69b7db" stroke="#69b7db"/><path d="M630,290L595,409L724,348Z" fill="#5ab2d2" stroke="#5ab2d2"/><path d="M724,348L595,409L675,458Z" fill="#48abc5" stroke="#48abc5"/><path d="M724,348L675,458L806,421Z" fill="#3ea8bd" stroke="#3ea8bd"/><path d="M724,348L806,421L898,309Z" fill="#42aac1" stroke="#42aac1"/><path d="M898,309L806,421L928,416Z" fill="#34a4b6" stroke="#34a4b6"/><path d="M898,309L928,416L1020,314Z" fill="#3ba3b5" stroke="#3ba3b5"/><path d="M1020,314L928,416L1055,478Z" fill="#289ba4" stroke="#289ba4"/><path d="M1020,314L1055,478L1094,320Z" fill="#2f9aa4" stroke="#2f9aa4"/><path d="M1094,320L1055,478L1218,444Z" fill="#1f9294" stroke="#1f9294"/><path d="M1094,320L1218,444L1208,309Z" fill="#2e949a" stroke="#2e949a"/><path d="M1208,309L1218,444L1379,359Z" fill="#2a8d8d" stroke="#2a8d8d"/><path d="M1379,359L1218,444L1377,454Z" fill="#1c857c" stroke="#1c857c"/><path d="M1379,359L1377,454L1445,453Z" fill="#1b8073" stroke="#1b8073"/><path d="M1379,359L1445,453L1532,300Z" fill="#2a8278" stroke="#2a8278"/><path d="M1532,300L1445,453L1664,370Z" fill="#297b6d" stroke="#297b6d"/><path d="M1664,370L1445,453L1641,503Z" fill="#15725e" stroke="#15725e"/><path d="M1664,370L1641,503L1665,841Z" fill="#125c3e" stroke="#125c3e"/><path d="M-61,412L-89,690L-71,544Z" fill="#91c5c2" stroke="#91c5c2"/><path d="M-61,412L-71,544L52,490Z" fill="#8fccd1" stroke="#8fccd1"/><path d="M52,490L-71,544L91,621Z" fill="#8abebd" stroke="#8abebd"/><path d="M52,490L91,621L192,590Z" fill="#82b6b6" stroke="#82b6b6"/><path d="M52,490L192,590L230,447Z" fill="#7dbbc3" stroke="#7dbbc3"/><path d="M230,447L192,590L277,536Z" fill="#76b4bc" stroke="#76b4bc"/><path d="M230,447L277,536L359,452Z" fill="#70b7c6" stroke="#70b7c6"/><path d="M359,452L277,536L445,480Z" fill="#65b2c0" stroke="#65b2c0"/><path d="M445,480L277,536L486,559Z" fill="#5faab6" stroke="#5faab6"/><path d="M445,480L486,559L595,409Z" fill="#4faabe" stroke="#4faabe"/><path d="M595,409L486,559L604,579Z" fill="#47a3b4" stroke="#47a3b4"/><path d="M595,409L604,579L675,458Z" fill="#3fa5b7" stroke="#3fa5b7"/><path d="M675,458L604,579L712,545Z" fill="#3a9ca8" stroke="#3a9ca8"/><path d="M675,458L712,545L806,421Z" fill="#31a1af" stroke="#31a1af"/><path d="M806,421L712,545L898,590Z" fill="#27989d" stroke="#27989d"/><path d="M806,421L898,590L928,416Z" fill="#1f9aa1" stroke="#1f9aa1"/><path d="M928,416L898,590L1055,478Z" fill="#1b9393" stroke="#1b9393"/><path d="M1055,478L898,590L991,621Z" fill="#1a877f" stroke="#1a877f"/><path d="M1055,478L991,621L1076,533Z" fill="#17867e" stroke="#17867e"/><path d="M1055,478L1076,533L1218,444Z" fill="#148a84" stroke="#148a84"/><path d="M1218,444L1076,533L1208,624Z" fill="#128072" stroke="#128072"/><path d="M1218,444L1208,624L1369,618Z" fill="#127660" stroke="#127660"/><path d="M1218,444L1369,618L1377,454Z" fill="#127a68" stroke="#127a68"/><path d="M1377,454L1369,618L1445,453Z" fill="#12755f" stroke="#12755f"/><path d="M1445,453L1369,618L1521,635Z" fill="#12694b" stroke="#12694b"/><path d="M1445,453L1521,635L1622,587Z" fill="#126644" stroke="#126644"/><path d="M1445,453L1622,587L1641,503Z" fill="#126a4c" stroke="#126a4c"/><path d="M1641,503L1622,587L1640,730Z" fill="#125935" stroke="#125935"/><path d="M1641,503L1640,730L1665,841Z" fill="#124c20" stroke="#124c20"/><path d="M-71,544L-89,690L91,621Z" fill="#8fb8af" stroke="#8fb8af"/><path d="M91,621L-89,690L56,718Z" fill="#8bad9e" stroke="#8bad9e"/><path d="M91,621L56,718L186,680Z" fill="#82a79c" stroke="#82a79c"/><path d="M91,621L186,680L192,590Z" fill="#7daaa5" stroke="#7daaa5"/><path d="M192,590L186,680L277,536Z" fill="#77aaa9" stroke="#77aaa9"/><path d="M277,536L186,680L287,749Z" fill="#74a19b" stroke="#74a19b"/><path d="M277,536L287,749L486,559Z" fill="#67a0a1" stroke="#67a0a1"/><path d="M486,559L287,749L452,754Z" fill="#5e938d" stroke="#5e938d"/><path d="M486,559L452,754L607,669Z" fill="#4e9191" stroke="#4e9191"/><path d="M486,559L607,669L604,579Z" fill="#47969e" stroke="#47969e"/><path d="M604,579L607,669L693,687Z" fill="#3e8d8d" stroke="#3e8d8d"/><path d="M604,579L693,687L712,545Z" fill="#399294" stroke="#399294"/><path d="M712,545L693,687L815,727Z" fill="#308881" stroke="#308881"/><path d="M712,545L815,727L898,590Z" fill="#278983" stroke="#278983"/><path d="M898,590L815,727L925,768Z" fill="#1f7b6a" stroke="#1f7b6a"/><path d="M898,590L925,768L991,621Z" fill="#1c7d6c" stroke="#1c7d6c"/><path d="M991,621L925,768L1053,757Z" fill="#1a7158" stroke="#1a7158"/><path d="M991,621L1053,757L1193,703Z" fill="#166f54" stroke="#166f54"/><path d="M991,621L1193,703L1208,624Z" fill="#137259" stroke="#137259"/><path d="M991,621L1208,624L1076,533Z" fill="#157d6b" stroke="#157d6b"/><path d="M1208,624L1193,703L1313,752Z" fill="#126542" stroke="#126542"/><path d="M1208,624L1313,752L1369,618Z" fill="#126543" stroke="#126543"/><path d="M1369,618L1313,752L1539,683Z" fill="#125c31" stroke="#125c31"/><path d="M1369,618L1539,683L1521,635Z" fill="#125d34" stroke="#125d34"/><path d="M1521,635L1539,683L1622,587Z" fill="#12592e" stroke="#12592e"/><path d="M1622,587L1539,683L1640,730Z" fill="#125226" stroke="#125226"/><path d="M-89,690L-17,818L56,718Z" fill="#8ea68f" stroke="#8ea68f"/><path d="M56,718L-17,818L40,858Z" fill="#8a9b7f" stroke="#8a9b7f"/><path d="M56,718L40,858L154,871Z" fill="#859579" stroke="#859579"/><path d="M56,718L154,871L186,680Z" fill="#809a86" stroke="#809a86"/><path d="M186,680L154,871L287,749Z" fill="#789380" stroke="#789380"/><path d="M287,749L154,871L350,799Z" fill="#738a74" stroke="#738a74"/><path d="M287,749L350,799L452,754Z" fill="#658a7b" stroke="#658a7b"/><path d="M452,754L350,799L493,812Z" fill="#5b8373" stroke="#5b8373"/><path d="M452,754L493,812L607,669Z" fill="#4e857c" stroke="#4e857c"/><path d="M607,669L493,812L534,840Z" fill="#4a7f74" stroke="#4a7f74"/><path d="M607,669L534,840L693,687Z" fill="#41827a" stroke="#41827a"/><path d="M693,687L534,840L768,799Z" fill="#3a796a" stroke="#3a796a"/><path d="M693,687L768,799L815,727Z" fill="#2d7a6b" stroke="#2d7a6b"/><path d="M815,727L768,799L879,840Z" fill="#257158" stroke="#257158"/><path d="M815,727L879,840L925,768Z" fill="#1f7055" stroke="#1f7055"/><path d="M925,768L879,840L955,799Z" fill="#1d694a" stroke="#1d694a"/><path d="M925,768L955,799L1053,757Z" fill="#1a6a4b" stroke="#1a6a4b"/><path d="M1053,757L955,799L1123,850Z" fill="#17623c" stroke="#17623c"/><path d="M1053,757L1123,850L1193,703Z" fill="#14613b" stroke="#14613b"/><path d="M1193,703L1123,850L1202,860Z" fill="#12592d" stroke="#12592d"/><path d="M1193,703L1202,860L1313,752Z" fill="#125a2f" stroke="#125a2f"/><path d="M1313,752L1202,860L1418,894Z" fill="#124c1b" stroke="#124c1b"/><path d="M1313,752L1418,894L1514,862Z" fill="#124610" stroke="#124610"/><path d="M1313,752L1514,862L1539,683Z" fill="#124d18" stroke="#124d18"/><path d="M1539,683L1514,862L1640,730Z" fill="#12470f" stroke="#12470f"/><path d="M1640,730L1514,862L1665,841Z" fill="#123d02" stroke="#123d02"/><path d="M154,871L1418,894L534,840Z" fill="#356a5c" stroke="#356a5c"/><path d="M154,871L534,840L350,799Z" fill="#68816f" stroke="#68816f"/><path d="M350,799L534,840L493,812Z" fill="#577e6b" stroke="#577e6b"/><path d="M534,840L1418,894L879,840Z" fill="#1c6044" stroke="#1c6044"/><path d="M534,840L879,840L768,799Z" fill="#326f5a" stroke="#326f5a"/><path d="M879,840L1418,894L1202,860Z" fill="#12512b" stroke="#12512b"/><path d="M879,840L1202,860L1123,850Z" fill="#165a36" stroke="#165a36"/><path d="M879,840L1123,850L955,799Z" fill="#1a613f" stroke="#1a613f"/><path d="M1418,894L1665,841L1514,862Z" fill="#123a02" stroke="#123a02"/></g></svg>