<?xml version="1.0" encoding="utf-8"?>
<!-- Generator: Adobe Illustrator 18.1.0, SVG Export Plug-In . SVG Version: 6.00 Build 0)  -->
<svg version="1.1" id="Layer_1" xmlns="http://www.w3.org/2000/svg" xmlns:xlink="http://www.w3.org/1999/xlink" x="0px" y="0px"
	 viewBox="-236.2 201.4 878 624.3" enable-background="new -236.2 201.4 878 624.3" xml:space="preserve">
<path fill="#DAEEF0" d="M-435.6,151.5l-10.8,823.7l61.7-210.5L-435.6,151.5z"/>
<path fill="#E6F7F5" d="M-435.6,151.5l50.9,613.1l25.5-181.3L-435.6,151.5z"/>
<path fill="#ECF7F5" d="M-435.6,151.5l76.3,431.9l16.5-188.2L-435.6,151.5z"/>
<path fill="#ECF7F5" d="M-435.6,151.5l92.8,243.6l88.5-171.7L-435.6,151.5z"/>
<path fill="#ECF7F5" d="M-435.6,151.5l181.3,71.9l302.2-98.6L-435.6,151.5z"/>
<path fill="#E8F7F5" d="M-435.6,151.5l483.4-26.8l272.9-28.6L-435.6,151.5z"/>
<path fill="#ECF7F5" d="M-254.3,223.4l-88.5,171.7l188.2-30.6L-254.3,223.4z"/>
<path fill="#EAF7F5" d="M-254.3,223.4l99.9,141.2L47.7,124.8L-254.3,223.4z"/>
<path fill="#E7F6F4" d="M47.7,124.8l-202.2,239.8l194,13.4L47.7,124.8z"/>
<path fill="#E4F4F3" d="M47.7,124.8l-8.3,253.1l78.2-227.7L47.7,124.8z"/>
<path fill="#E0F1F1" d="M47.7,124.8l70,25.5l202.9-54.1L47.7,124.8z"/>
<path fill="#E1F2F1" d="M117.7,150.3L39.5,378l181.9-59.2L117.7,150.3z"/>
<path fill="#DEF0F0" d="M117.7,150.3l103.7,168.5l99.2-222.6L117.7,150.3z"/>
<path fill="#DAEFF0" d="M320.6,96.2l-99.2,222.6l168.5,19.7L320.6,96.2z M320.6,96.2l69.3,242.3l114.5-237.2L320.6,96.2z"/>
<path fill="#D6ECF0" d="M504.4,101.3L389.9,338.5l193.3-12.1L504.4,101.3z M504.4,101.3l78.9,225.1l146.9-179.3L504.4,101.3z"/>
<path fill="#D7EDF0" d="M730.3,147L583.4,326.3l148.7,42.1L730.3,147z"/>
<path fill="#D6ECF0" d="M730.3,147l2,221.3L790,711.2L730.3,147z"/>
<path fill="#E5F6F4" d="M-342.8,395.1l-16.5,188.2l114.5-47.1L-342.8,395.1z"/>
<path fill="#E7F7F5" d="M-342.8,395.1l97.9,141.2l90.3-171.7L-342.8,395.1z"/>
<path fill="#DFF0F0" d="M-154.4,364.6l-90.3,171.7l280.5-24.2L-154.4,364.6z"/>
<path fill="#E0F0F0" d="M-154.4,364.6L35.8,512.1L39.6,378L-154.4,364.6z"/>
<path fill="#D9EEF0" d="M39.5,377.9L35.6,512l129.2,74.4L39.5,377.9z"/>
<path fill="#DBEFF0" d="M39.5,377.9l125.3,208.6l56.6-267.8L39.5,377.9z"/>
<path fill="#D6ECF0" d="M221.4,318.8l-56.6,267.8l142.4-65.5L221.4,318.8z"/>
<path fill="#D7EDF0" d="M221.4,318.8l85.8,202.3l82.7-182.6L221.4,318.8z"/>
<path fill="#D6ECF0" d="M389.9,338.5l-82.7,182.6l223.3-28.6L389.9,338.5z"/>
<path fill="#D7EDF0" d="M389.9,338.5l140.6,154l52.8-166L389.9,338.5z M583.3,326.4l-52.8,166l201.6-124L583.3,326.4z"/>
<path fill="#D6ECF0" d="M732.1,368.4l-201.6,124l180,64.2L732.1,368.4z"/>
<path fill="#DBEFF0" d="M732.1,368.4l-21.7,188.2L790,711.2L732.1,368.4z"/>
<path fill="#D9EEF0" d="M-359.3,583.3l-25.5,181.3l201-85.8L-359.3,583.3z"/>
<path fill="#D9EEF0" d="M-359.3,583.3l175.5,95.4l-61-142.4L-359.3,583.3z"/>
<path fill="#DAEFF0" d="M-244.8,536.3l61,142.4L35.8,512L-244.8,536.3z"/>
<path fill="#D9EEF0" d="M35.6,512.1l-219.4,166.6l110,46.5L35.6,512.1z"/>
<path fill="#DBEFF0" d="M35.6,512.1l-109.4,213l238.5-138.6L35.6,512.1z"/>
<path fill="#D7EDF0" d="M164.8,586.6L-73.7,725.2L143.1,757L164.8,586.6z"/>
<path fill="#DBEFF0" d="M164.8,586.6l-21.7,170.5l191.4,33.1L164.8,586.6z"/>
<path fill="#DAEFF0" d="M164.8,586.6l169.8,203.6l-27.3-269.1L164.8,586.6z"/>
<path fill="#D7EDF0" d="M307.2,521L334.5,790l195.9-297.7L307.2,521z"/>
<path fill="#D6ECF0" d="M530.5,492.3L334.6,790l291.9-118.3L530.5,492.3z"/>
<path fill="#DAEFF0" d="M530.5,492.3l96.1,179.3l83.9-115L530.5,492.3z"/>
<path fill="#D6ECF0" d="M710.5,556.7l-84,115.1L790,711.2L710.5,556.7z"/>
<path fill="#8E9B9B" d="M-384.7,764.6l-61.7,210.5l201.6-21.7L-384.7,764.6z"/>
<path fill="#D9EEF0" d="M-384.7,764.6l139.9,188.9l61-274.7L-384.7,764.6z"/>
<path fill="#DAEFF0" d="M-183.7,678.7l-61,274.7l171-228.3L-183.7,678.7z M-73.7,725.2l-171,228.3l269.1-99.2L-73.7,725.2z"/>
<path fill="#D9EEF0" d="M-73.7,725.2l97.9,129.2l118.9-97.3L-73.7,725.2z"/>
<path fill="#DAEFF0" d="M143.1,757L24.2,854.2l112.6,110L143.1,757z"/>
<path fill="#D7EDF0" d="M143.1,757l-6.3,207.4L334.6,790L143.1,757z"/>
<path fill="#D6ECF0" d="M334.6,790L136.8,964.3L435.7,904L334.6,790z"/>
<path fill="#DAEFF0" d="M334.6,790l101.1,113.8l190.8-232.2L334.6,790z"/>
<path fill="#D7EDF0" d="M626.6,671.8L435.7,903.9l85.8,69.3L626.6,671.8z"/>
<path fill="#D6ECF0" d="M626.6,671.8L521.7,973.3L724,938.3L626.6,671.8z M626.6,671.8l97.3,266.5L790,711.2L626.6,671.8z"/>
<path fill="#707F80" d="M-446.4,975.1l968.1-2l-384.7-8.9L-446.4,975.1z"/>
<path fill="#7E8B8B" d="M-446.4,975.1l583.2-10.8l-381.6-10.8L-446.4,975.1z"/>
<path fill="#758484" d="M-244.8,953.5l381.6,10.8l-112.6-110L-244.8,953.5z"/>
<path fill="#DAEFF0" d="M136.8,964.3l384.7,8.9L435.7,904L136.8,964.3z"/>
</svg>
