<?xml version="1.0" encoding="utf-8"?>
<!-- Generator: Adobe Illustrator 18.1.0, SVG Export Plug-In . SVG Version: 6.00 Build 0)  -->
<svg version="1.1" id="Layer_1" xmlns="http://www.w3.org/2000/svg" xmlns:xlink="http://www.w3.org/1999/xlink" x="0px" y="0px"
	 viewBox="0 0 68.8 68.8" enable-background="new 0 0 68.8 68.8" xml:space="preserve">
<g>
	<g>
		<path fill="#FFFFFF" d="M63.3,34.4c-0.3,15.8-12.9,29-29,29c-15.8,0-29-13.2-29-29c0-15.8,13.2-29,29-29
			C50.4,5.5,63,18.6,63.3,34.4c0.1,3.2,5.1,3.2,5,0c-0.3-14-8.7-26.7-22-31.8C32.9-2.4,17.3,1.7,8.2,12.8c-9,10.9-10.3,26.7-3,38.9
			c7.2,12.1,21.5,18.6,35.4,16.1C56.7,64.9,68,50.6,68.3,34.4C68.4,31.2,63.4,31.2,63.3,34.4z"/>
	</g>
</g>
<g>
	<g>
		<path fill="#FFFFFF" d="M36.9,36.4c0-5,0-10,0-15c0-3.2-5-3.2-5,0c0,5,0,10,0,15C31.9,39.6,36.9,39.6,36.9,36.4L36.9,36.4z"/>
	</g>
</g>
<g>
	<g>
		<path fill="#FFFFFF" d="M35.3,39.3c6.1-1.8,12.1-3.6,18.2-5.5c3.7-1.1,2.1-6.9-1.6-5.8c-6.1,1.8-12.1,3.6-18.2,5.5
			C30,34.6,31.6,40.4,35.3,39.3L35.3,39.3z"/>
	</g>
</g>
</svg>
