<?xml version="1.0" encoding="utf-8"?>
<!-- Generator: Adobe Illustrator 18.1.0, SVG Export Plug-In . SVG Version: 6.00 Build 0)  -->
<svg version="1.1" id="Layer_1" xmlns="http://www.w3.org/2000/svg" xmlns:xlink="http://www.w3.org/1999/xlink" x="0px" y="0px"
	 viewBox="0 0 68.8 68.8" enable-background="new 0 0 68.8 68.8" xml:space="preserve">
<g>
	<g>
		<path d="M62.8,34.4c-0.3,15.5-12.7,28.5-28.5,28.5c-15.5,0-28.5-12.9-28.5-28.5C5.9,18.9,18.9,6,34.4,6
			C50.1,6,62.5,18.9,62.8,34.4c0.1,3.9,6.1,3.9,6,0C68.5,20.1,60,7.3,46.5,2.2C32.9-3,17,1.3,7.8,12.5C-1.3,23.6-2.6,39.6,4.7,52
			c7.3,12.3,21.8,18.8,35.9,16.3c16.4-3,27.8-17.5,28.2-33.9C68.9,30.6,62.9,30.6,62.8,34.4z"/>
	</g>
</g>
<g>
	<g>
		<path d="M37.4,36.4c0-5,0-10,0-15c0-3.9-6-3.9-6,0c0,5,0,10,0,15C31.4,40.3,37.4,40.3,37.4,36.4L37.4,36.4z"/>
	</g>
</g>
<g>
	<g>
		<path d="M35.3,39.3c6.1-1.8,12.1-3.6,18.2-5.5c3.7-1.1,2.1-6.9-1.6-5.8c-6.1,1.8-12.1,3.6-18.2,5.5C30,34.6,31.6,40.4,35.3,39.3
			L35.3,39.3z"/>
	</g>
</g>
</svg>
