<?xml version="1.0" encoding="utf-8"?>
<!-- Generator: Adobe Illustrator 18.1.0, SVG Export Plug-In . SVG Version: 6.00 Build 0)  -->
<svg version="1.1" id="Indienomicon_Logo" xmlns="http://www.w3.org/2000/svg" xmlns:xlink="http://www.w3.org/1999/xlink" x="0px"
	 y="0px" viewBox="0 0 529 646.5" enable-background="new 0 0 529 646.5" xml:space="preserve">
<path id="covers" fill="#189A99" d="M505,606H24c-13.2,0-24-10.8-24-24V24C0,10.8,10.8,0,24,0h481c13.2,0,24,10.8,24,24v558
	C529,595.2,518.2,606,505,606z"/>
<path id="spine" fill="#03638F" d="M24,0C10.8,0,0,10.8,0,24v558c0,13.2,10.8,24,24,24h72.8V0H24z"/>
<path id="left_eye" fill="#1B293B" d="M239,281L239,281c-19.9,0-36-16.1-36-36V107c0-19.9,16.1-36,36-36h0c19.9,0,36,16.1,36,36v138
	C275,264.9,258.9,281,239,281z"/>
<path id="right_eye" fill="#1B293B" d="M383,281L383,281c-19.9,0-36-16.1-36-36V107c0-19.9,16.1-36,36-36h0c19.9,0,36,16.1,36,36
	v138C419,264.9,402.9,281,383,281z"/>
<path id="pages" fill="#FFFFFF" d="M49.3,514.8c-13.8,0-25,11.2-25,25v16.7c0,13.8,11.2,25,25,25H529v-66.7H49.3z"/>
<polygon id="bookmark" fill="#03638F" points="464.5,646.5 415.8,630.5 367,646.5 367,548.1 464.5,548.1 "/>
</svg>
